<svg xmlns="http://www.w3.org/2000/svg" width="800" height="800" class="icon flat-line" data-name="Flat Line" viewBox="0 0 24 24"><path d="M17 15v-5a1 1 0 0 0-1-1H8a1 1 0 0 0-1 1v5a5 5 0 0 0 5 5 5 5 0 0 0 5-5" style="fill:#2ca9bc;stroke-width:2"/><path d="M16 18a5 5 0 0 1 2.72 3v0" style="fill:none;stroke:#000;stroke-linecap:round;stroke-linejoin:round;stroke-width:2"/><path d="M8 18a5 5 0 0 0-2.72 3v0M17.22 3a2.82 2.82 0 0 1-1.82 2.05l-.89.31M9.49 5.36l-.89-.31A2.82 2.82 0 0 1 6.78 3h0M21 7.1l-.53.9A5.42 5.42 0 0 1 17 10.47h0M17 13.5a5.06 5.06 0 0 1 3.65 2.31l.35.55M7 10.47A5.42 5.42 0 0 1 3.53 8L3 7.1M3 16.36l.35-.55A5.06 5.06 0 0 1 7 13.5h0" data-name="primary" style="fill:none;stroke:#000;stroke-linecap:round;stroke-linejoin:round;stroke-width:2"/><path d="M17 15v-5a1 1 0 0 0-1-1H8a1 1 0 0 0-1 1v5a5 5 0 0 0 5 5h0a5 5 0 0 0 5-5m-2-6H9V7a3 3 0 0 1 3-3h0a3 3 0 0 1 3 3Z" data-name="primary" style="fill:none;stroke:#000;stroke-linecap:round;stroke-linejoin:round;stroke-width:2"/></svg>