<svg xmlns="http://www.w3.org/2000/svg" xml:space="preserve" viewBox="0 0 512 512"><path d="M375.716 503.983H136.284l-34.205-290.739h307.842z" style="fill:#ff8c78"/><path d="M399.797 299.29H112.203l18.108 153.921h251.378z" style="fill:#f6f6f7"/><path d="m405.833 247.983 4.086-34.739H102.078l4.086 34.739 30.119 256h101.091c-61.62-57.199-101.091-145.105-101.091-243.708 0-4.118.09-8.212.227-12.292z" style="fill:#df7a6e"/><path d="m112.203 299.824 18.108 153.921h251.378l18.108-153.921z" style="fill:#fff"/><path d="M130.311 453.211h63.634c-29.551-43.467-49.343-96.243-55.554-153.921h-26.189z" style="fill:#ecedef"/><path d="M401.369 161.937H110.63l17.103-68.409h256.534z" style="fill:#b3b9bf"/><path d="M67.875 153.386h376.251v68.409H67.875z" style="fill:#ecedef"/><path d="M67.875 153.386h43.29v68.409h-43.29z" style="fill:#d9dcdf"/><path d="M315.86 153.386h-51.309v68.409h52.151c-.752-22.797-.834-45.794-.842-68.409" style="fill:#f6f6f7"/><path d="M153.386 119.181h68.409v34.205h-68.409z" style="fill:#424f5e"/><path d="M153.386 119.181h68.409v17.102h-68.409z" style="fill:#68727e"/><path d="M444.125 145.369h-38.634l-13.447-53.786a8.02 8.02 0 0 0-7.777-6.072H127.733a8.016 8.016 0 0 0-7.777 6.072l-13.447 53.786H67.875a8.017 8.017 0 0 0-8.017 8.017v68.409a8.017 8.017 0 0 0 8.017 8.017h28.082l32.365 275.108a8.017 8.017 0 0 0 7.961 7.08h239.432a8.016 8.016 0 0 0 7.961-7.08l13.078-111.165a8.017 8.017 0 0 0-7.025-8.899c-4.395-.517-8.382 2.627-8.897 7.025l-6.272 53.312H137.44l-16.223-137.887h269.565l-5.926 50.371a8.017 8.017 0 0 0 15.922 1.875l15.264-129.738h28.083a8.017 8.017 0 0 0 8.017-8.017v-68.409a8.02 8.02 0 0 0-8.017-8.019m-310.134-43.824h244.017l10.956 43.825H229.812v-26.188a8.017 8.017 0 0 0-8.017-8.017h-68.409a8.017 8.017 0 0 0-8.017 8.017v26.188h-22.333zm79.788 43.824h-52.376v-18.171h52.376zm158.895 315.858-4.086 34.739H143.412l-4.086-34.739zm63.434-247.449H196.142a8.017 8.017 0 0 0-8.017 8.017 8.017 8.017 0 0 0 8.017 8.017H399.9l-7.231 61.461H119.331l-7.231-61.461h41.286a8.017 8.017 0 0 0 8.017-8.017 8.017 8.017 0 0 0-8.017-8.017H75.891v-52.376h360.217zM250.33 73.543c3.261 3.26 8.766 3.041 11.764-.46 2.686-3.137 2.493-7.959-.425-10.877-5.156-5.156-4.385-7.479 1.847-17.042 6.044-9.278 16.161-24.807-1.847-42.816a8.017 8.017 0 0 0-11.338 11.337c8.476 8.476 6.197 12.83-.249 22.726-5.442 8.353-14.55 22.333.248 37.132M310.855 73.543c3.261 3.26 8.766 3.041 11.764-.46 2.686-3.137 2.493-7.959-.425-10.877-5.156-5.156-4.385-7.479 1.847-17.042 6.044-9.278 16.161-24.807-1.847-42.816a8.017 8.017 0 0 0-11.338 11.337c8.476 8.476 6.197 12.83-.249 22.726-5.442 8.353-14.55 22.333.248 37.132M191.139 73.543c3.261 3.26 8.766 3.041 11.764-.46 2.686-3.137 2.493-7.959-.425-10.877-5.156-5.156-4.385-7.479 1.847-17.042 6.044-9.278 16.161-24.807-1.847-42.816a8.017 8.017 0 0 0-11.338 11.337c8.476 8.476 6.197 12.83-.249 22.726-5.442 8.353-14.55 22.333.248 37.132"/></svg>