<svg xmlns="http://www.w3.org/2000/svg" viewBox="0 0 64 64">
  <path fill="#f6af62" d="M21.04 20.63s-1.79 8.99-.96 11.47c0 0 1.1-13.6 11.67-24.1 0 0-.34 8.79 5.15 13.25s6.73 11.4 6.73 11.4.62-4.74-1.24-12.33c0 0 11.67 12.12 6.32 25.65 0 0-6.45 14.9-24.92 8.38s-6.05-31.38-2.75-33.72z"/>
  <path fill="#fbd872" d="M40.75 32.12c.17 3.81-1.55 4.81-2.94 5.01-.89.13-1.79-.1-2.57-.53-7.65-4.15-3.72-14.29-3.72-14.29-5.01 4.79-2.4 14.74-2.4 14.74s1.55 5.64-1.62 6.13c-1.59.25-2.33-.39-2.67-1.08-.31-.64-.31-1.39-.04-2.05 2.15-5.34.31-8.36.31-8.36-1.03 3.06-2.12 5.08-2.91 6.29-1.12 1.72-1.83 3.68-1.93 5.73-.36 7.64 6.04 10.69 6.04 10.69 10.51 5.36 15.23-4.44 15.23-4.44 5.43-10.44-.78-17.84-.78-17.84z"/>
</svg>
