<svg xmlns="http://www.w3.org/2000/svg" height="1.2em" viewBox="0 0 148 36">
  <path fill="#ffcc4d" d="M147.999 32.001A4 4 0 0 1 144 36H3.999A3.999 3.999 0 0 1 0 32.001V4a4 4 0 0 1 3.999-4H144a4 4 0 0 1 3.999 3.999z"/>
  <path fill="#664500" d="M138.61 22.995q0 1.742-1.821 1.742-1.841 0-1.841-1.739V9.128q0-1.724 1.84-1.724 1.822 0 1.822 1.724zm-1.821 7.668q-.98 0-1.595-.604-.62-.616-.62-1.561 0-.96.605-1.58.616-.616 1.61-.616.96 0 1.576.635.62.635.62 1.56 0 .912-.62 1.55-.616.616-1.576.616zm-16.781-7.423q.325 2.053 1.398 3.077 1.092 1.024 2.93 1.024 1.125 0 1.806-.227.684-.245 1.742-.91.586-.36 1.058-.36.605 0 1.093.552.502.54.502 1.108 0 1.171-1.954 2.165-1.935.994-4.308.994-3.73 0-5.878-2.343-2.15-2.362-2.15-6.35 0-4.081 2.082-6.527 2.087-2.441 5.715-2.441 3.254 0 5.223 2.131 1.97 2.136 1.97 5.601 0 1.32-.522 1.92-.518.586-1.61.586zm7.536-3.205q-.132-1.678-1.092-2.683-.945-1.013-2.408-1.013-1.565 0-2.62.975-1.057.979-1.352 2.721zm-18.1-3.598v8.935q0 .88.378 1.383.37.492 1.088.492.473 0 .99-.197.817-.31 1.172-.31.556 0 .96.567.408.556.408 1.225 0 .748-.635 1.186-.616.424-1.53.68-.892.265-1.871.265-2.344 0-3.481-1.27-1.142-1.285-1.142-3.957v-8.999h-1.171q-.877 0-1.236-.276-.36-.295-.36-1.285 0-.964.341-1.24.34-.29 1.255-.29h1.171V9.88q0-.847.409-1.19.404-.36 1.383-.36 1.058 0 1.463.36.408.34.408 1.19v3.466h3.061q.847 0 1.153.325.31.31.31 1.205 0 .862-.325 1.221-.325.34-1.138.34zm-19.11 6.803q.33 2.053 1.399 3.077 1.096 1.024 2.933 1.024 1.122 0 1.806-.227.68-.245 1.739-.91.59-.36 1.058-.36.605 0 1.096.552.503.54.503 1.108 0 1.171-1.954 2.165-1.939.994-4.312.994-3.73 0-5.878-2.343-2.146-2.362-2.146-6.35 0-4.081 2.078-6.527 2.087-2.441 5.715-2.441 3.258 0 5.227 2.131 1.965 2.136 1.965 5.601 0 1.32-.517 1.92-.522.586-1.61.586zm7.537-3.205q-.129-1.678-1.089-2.683-.945-1.013-2.411-1.013-1.56 0-2.62.975-1.057.979-1.348 2.721zm-14.857 9.033q0 1.527-1.875 1.527-1.807 0-1.807-1.527V6.803q0-.782.424-1.126.423-.34 1.417-.34.975 0 1.398.359.443.34.443 1.107zM64.766 23.24q.325 2.053 1.398 3.077 1.093 1.024 2.933 1.024 1.123 0 1.807-.227.68-.245 1.739-.91.585-.36 1.058-.36.605 0 1.092.552.503.54.503 1.108 0 1.171-1.95 2.165-1.94.994-4.317.994-3.726 0-5.873-2.343-2.15-2.362-2.15-6.35 0-4.081 2.086-6.527 2.078-2.441 5.71-2.441 3.255 0 5.224 2.131 1.969 2.136 1.969 5.601 0 1.32-.518 1.92-.521.586-1.614.586zm7.536-3.205q-.132-1.678-1.092-2.683-.945-1.013-2.407-1.013-1.561 0-2.62.975-1.058.979-1.353 2.721zM42.973 30.338q-1.417 0-2.196-.733-.767-.733-.767-2.067V10.772q0-1.546.782-2.325.794-.782 2.378-.782h4.505q4.902 0 7.748 3.008 2.85 2.998 2.85 7.96 0 5.356-2.835 8.53-2.812 3.175-7.763 3.175zm.764-4.006q0 .537.472.537h3.273q3.368 0 5.208-2.132 1.852-2.147 1.852-5.972 0-3.583-1.852-5.6-1.855-2.034-5.208-2.034h-3.175q-.245 0-.408.177-.162.182-.162.458z"/>
  <path fill="#9aaab4" d="M28.006 7.71L26.7 11.048 25.387 7.71h-3.05l-1.414 3.606-1.417-3.606h-2.838l-1.414 3.606-1.417-3.606h-3.05l-1.312 3.338L8.168 7.71H6.425L9.17 28.297h17.828L29.745 7.71zM23.86 8.946l1.81 4.72-1.912 4.865-1.807-4.596zm-5.771.272l1.803 4.717-1.803 4.596-1.807-4.596zm-5.775-.272l1.908 4.99-1.806 4.595-1.913-4.864zm-3.077 8.032l.238-.624 1.875 4.895-1.157 2.94zm1.55 11.312l1.629-4.256 1.629 4.256zm2.698-7.041l1.77-4.623 1.764 4.623-1.765 4.497zm2.975 7.04l1.625-4.255 1.629 4.256zm2.695-7.04l1.765-4.623 1.769 4.623-1.77 4.497zm2.974 7.04l1.625-4.255 1.633 4.256zm3.961-3.817l-1.266-3.223 1.875-4.895.302.79z"/>
  <path fill="#67757f" d="M28.377 29.76a1.47 1.47 0 0 0-1.474-1.474H9.27a1.47 1.47 0 0 0 0 2.94h17.64a1.47 1.47 0 0 0 1.47-1.466zm2.94-23.52a1.47 1.47 0 0 0-1.474-1.466H6.331a1.47 1.47 0 0 0 0 2.936h23.52a1.47 1.47 0 0 0 1.47-1.47z"/>
</svg>
