<svg xmlns="http://www.w3.org/2000/svg" viewBox="0 0 215 36"><path d="M17.91 0C8.004.05 0 8.094 0 18c0 9.941 8.059 18 18 18l181.352-.092c9.192-.93 16.187-8.669 16.187-17.908 0-9.941-8.059-18-18-18H17.91z" fill="#ffcc4d"/><path d="M184.636 28.598q-.624 0-1.049-.425-.425-.426-.425-1.05V7.93q0-.652.425-1.049.425-.425 1.05-.425h12.814q.652 0 1.05.397.396.369.396.992 0 .596-.397.964-.397.369-1.049.369h-11.34v6.89h8.137q.623 0 1.02.396.425.369.425.964 0 .596-.425.993-.397.368-1.02.368h-8.138v7.088h11.341q.652 0 1.05.369.396.368.396.964 0 .623-.397 1.02-.397.369-1.049.369zm-8.619-22.143q.624 0 1.05.425.425.426.425 1.05v19.194q0 .623-.454 1.049-.425.425-1.02.425-.625 0-1.05-.425-.425-.426-.425-1.05v-14.09l-6.861 13.977q-.482.737-1.276.737-.936 0-1.361-.878l-6.776-13.581v13.836q0 .623-.425 1.049-.426.425-1.05.425-.623 0-1.048-.425-.426-.426-.426-1.05V7.93q0-.623.426-1.049.425-.425 1.049-.425.85 0 1.304.794l8.42 16.87 8.194-16.87q.454-.794 1.304-.794zm-39.069 22.143q-.624 0-1.049-.425-.425-.426-.425-1.05V7.93q0-.652.425-1.049.425-.425 1.05-.425h12.814q.652 0 1.05.397.396.369.396.992 0 .596-.397.964-.397.369-1.049.369h-11.34v6.89h8.137q.623 0 1.02.396.425.369.425.964 0 .596-.425.993-.397.368-1.02.368h-8.137v7.088h11.34q.652 0 1.05.369.396.368.396.964 0 .623-.397 1.02-.397.369-1.049.369zm-6.095-22.143q.595 0 .963.397.397.369.397.964t-.397.992q-.368.369-.963.369h-6.096v17.947q0 .623-.425 1.049-.426.425-1.05.425-.623 0-1.048-.425-.426-.426-.426-1.05V9.178h-6.124q-.595 0-.992-.369-.369-.397-.369-.992t.369-.964q.397-.397.992-.397zM98.36 28.598q-.624 0-1.049-.425-.425-.426-.425-1.05V7.93q0-.652.425-1.049.425-.425 1.05-.425h12.814q.652 0 1.05.397.396.369.396.992 0 .596-.397.964-.397.369-1.049.369h-11.34v6.89h8.136q.624 0 1.021.396.425.369.425.964 0 .596-.425.993-.397.368-1.02.368h-8.138v7.088h11.341q.652 0 1.05.369.396.368.396.964 0 .623-.397 1.02-.397.369-1.049.369zm-18.23 0q-.624 0-1.05-.425-.396-.426-.396-1.05V7.93q0-.623.425-1.049.425-.425 1.02-.425.625 0 1.05.425.425.426.425 1.05v17.72H91.87q.623 0 1.049.425.425.425.425 1.049 0 .623-.425 1.049-.426.425-1.05.425zm-19.818 0q-.624 0-1.05-.425-.424-.426-.424-1.05V7.93q0-.652.425-1.049.425-.425 1.049-.425h12.815q.652 0 1.049.397.397.369.397.992 0 .596-.397.964-.397.369-1.049.369h-11.34v6.89h8.136q.624 0 1.02.396.426.369.426.964 0 .596-.425.993-.397.368-1.02.368h-8.138v7.088h11.341q.652 0 1.049.369.397.368.397.964 0 .623-.397 1.02-.397.369-1.049.369zm-22.2 0q-.623 0-1.049-.425-.425-.426-.425-1.05V7.93q0-.652.425-1.049.426-.425 1.05-.425h5.131q3.204 0 5.699 1.418 2.495 1.417 3.884 3.94 1.39 2.496 1.39 5.7 0 3.203-1.39 5.726-1.39 2.524-3.884 3.941-2.495 1.418-5.699 1.418zm5.132-2.608q2.353 0 4.196-1.078 1.871-1.077 2.892-3.005 1.049-1.956 1.049-4.395 0-2.438-1.049-4.366-1.02-1.928-2.892-3.005-1.843-1.078-4.196-1.078h-3.657V25.99z" fill="#1a1a1a"/><path fill="#9aaab4" d="M27.025 8.543l-1.241 3.16-1.242-3.16h-2.886l-1.34 3.412-1.341-3.412h-2.689l-1.34 3.412-1.341-3.412h-2.887l-1.242 3.16-1.241-3.16H6.587l2.6 19.496h16.886l2.6-19.496zM23.1 9.71l1.711 4.471L23 18.79l-1.71-4.352zm-5.469.258l1.71 4.468-1.71 4.352-1.71-4.352zm-5.469-.258l1.809 4.727-1.71 4.352-1.81-4.608zM9.25 17.32l.227-.594 1.774 4.635-1.095 2.787zm1.469 10.71L12.26 24l1.542 4.03zm2.553-6.67l1.675-4.375 1.674 4.376-1.674 4.263zm2.817 6.67L17.63 24l1.542 4.03zm2.552-6.67l1.674-4.375 1.675 4.376-1.675 4.263zm2.818 6.67L23 24l1.542 4.03zm3.752-3.614l-1.2-3.055 1.774-4.634.286.747z"/><path fill="#67757f" d="M27.373 29.422c0-.769-.623-1.392-1.392-1.392H9.28a1.392 1.392 0 0 0 0 2.783H25.98c.769 0 1.392-.623 1.392-1.391zM30.157 7.15c0-.77-.623-1.392-1.392-1.392H6.495a1.392 1.392 0 0 0 0 2.784h22.27c.769 0 1.392-.623 1.392-1.392z"/></svg>
