<svg xmlns="http://www.w3.org/2000/svg" viewBox="0 0 139.53906 36.000092" width="139.539" height="36"><path d="M17.91 0C8.004.05 0 8.094 0 18c0 9.941 8.059 18 18 18l105.352-.092c9.192-.93 16.187-8.669 16.187-17.908 0-9.941-8.059-18-18-18H17.91z" fill="#ffcc4d"/><circle fill="#be1931" cx="18" cy="32" r="3"/><path fill="#be1931" d="M21 24a3 3 0 0 1-6 0V5a3 3 0 1 1 6 0z"/><path d="M108.615 28.598q-.624 0-1.049-.425-.425-.426-.425-1.05V7.93q0-.652.425-1.049.425-.425 1.049-.425h12.815q.652 0 1.05.397.396.369.396.992 0 .596-.397.964-.397.369-1.049.369h-11.34v6.89h8.136q.624 0 1.021.396.425.369.425.964 0 .596-.425.993-.397.368-1.02.368h-8.138v7.088h11.341q.652 0 1.05.369.396.368.396.964 0 .623-.397 1.02-.397.369-1.049.369zM99.996 6.455q.624 0 1.05.425.424.426.424 1.05v19.194q0 .623-.453 1.049-.426.425-1.021.425-.624 0-1.049-.425-.425-.426-.425-1.05v-14.09L91.66 27.01q-.482.737-1.276.737-.936 0-1.361-.878l-6.776-13.581v13.836q0 .623-.426 1.049-.425.425-1.049.425-.623 0-1.049-.425-.425-.426-.425-1.05V7.93q0-.623.425-1.049.426-.425 1.05-.425.85 0 1.304.794l8.42 16.87 8.194-16.87q.453-.794 1.304-.794zM74.791 26.216q.312.454.312.964 0 .567-.369.993-.368.425-.992.425-.709 0-1.134-.539l-6.152-8.534-6.521 8.648q-.426.425-1.021.425-.624 0-.992-.397-.34-.397-.34-.964t.34-1.02l6.606-8.79L58.29 8.78q-.283-.369-.283-.879 0-.595.368-1.02.369-.426.993-.426.737 0 1.049.425l6.095 8.45 6.351-8.45q.397-.425 1.05-.425.595 0 .935.397.368.397.368.964 0 .482-.311.964l-6.465 8.619zm-22.937 2.382q-.623 0-1.049-.425-.425-.426-.425-1.05V7.93q0-.652.425-1.049.426-.425 1.05-.425.651 0 1.048.425.426.397.426 1.05v19.194q0 .623-.426 1.049-.397.425-1.049.425zm-19.506 0q-.623 0-1.049-.425-.425-.426-.425-1.05V7.93q0-.652.425-1.049.426-.425 1.05-.425h12.814q.652 0 1.05.397.396.369.396.992 0 .596-.397.964-.397.369-1.049.369h-11.34v6.89h8.137q.623 0 1.02.396.426.369.426.964 0 .596-.426.993-.397.368-1.02.368h-8.137v8.336q0 .623-.426 1.049-.425.425-1.049.425z" fill="#1a1a1a"/></svg>
