<svg xmlns="http://www.w3.org/2000/svg" height="1.2em" viewBox="0 0 150 36">
  <path fill="#ffcc4d" d="M149.998 32.001A3.998 3.998 0 0 1 146 36H4.003A3.999 3.999 0 0 1 0 32.001V4.003A4.001 4.001 0 0 1 3.999 0h142a3.999 3.999 0 0 1 4 4.003z"/>
  <path fill="#664500" d="M136.619 22.503q0 1.739-1.822 1.739-1.84 0-1.84-1.739V8.633q0-1.724 1.84-1.724 1.822 0 1.822 1.727zm-1.822 7.665q-.979 0-1.595-.605-.62-.616-.62-1.56 0-.96.605-1.58.616-.616 1.61-.616.96 0 1.576.635.62.635.62 1.56 0 .911-.62 1.55-.616.616-1.576.616zm-16.781-7.423q.325 2.052 1.398 3.077 1.092 1.024 2.93 1.024 1.122 0 1.806-.227.684-.245 1.742-.91.586-.36 1.059-.36.604 0 1.088.556.507.537.507 1.104 0 1.171-1.955 2.165-1.935.994-4.312.994-3.727 0-5.877-2.343-2.147-2.362-2.147-6.35 0-4.082 2.083-6.527 2.082-2.442 5.714-2.442 3.254 0 5.224 2.136 1.969 2.132 1.969 5.597 0 1.32-.522 1.92-.518.586-1.61.586zm7.536-3.205q-.132-1.678-1.092-2.683-.945-1.013-2.408-1.013-1.564 0-2.623.979-1.058.975-1.349 2.717zm-15.27 8.969q0 .831-.388 1.22-.378.375-1.448.375-.979 0-1.338-.36-.355-.377-.355-1.235V13.274l-4.8 8.526q-.492.866-.98 1.093-.472.211-1.091.211-.632 0-1.123-.227-.488-.245-.945-1.043l-4.766-8.428v15.103q0 .847-.359 1.22-.359.375-1.368.375-1.058 0-1.433-.378-.374-.39-.374-1.217V9.173q0-2.264 2.166-2.264.797 0 1.255.295.472.29.907 1.073l6.04 10.84 6.172-11.086q.325-.551.778-.831.454-.291 1.323-.291 1.054 0 1.591.537.537.521.537 1.727zm-36.279-7.295q2.18 1.905 3.273 3.712 1.108 1.791 1.108 3.485 0 1.693-1.871 1.693-.847 0-1.255-.325-.39-.34-.552-1.172-.28-1.5-1.141-2.82-.847-1.315-2.264-2.471-1.625 1.27-2.57 2.589-.926 1.315-1.157 2.698-.162.896-.586 1.21-.404.29-1.319.29-1.757 0-1.757-1.757 0-1.613 1.171-3.42 1.172-1.807 3.534-3.79-1.855-1.758-2.929-3.565-1.073-1.807-1.073-3.322 0-1.675 1.822-1.675.895 0 1.3.356.423.34.604 1.24.227 1.171.847 2.279.635 1.088 2.196 2.619 1.693-1.55 2.426-2.669.73-1.122.926-2.23.178-.895.586-1.24.424-.355 1.32-.355 1.84 0 1.84 1.709 0 1.481-1.126 3.224-1.123 1.723-3.353 3.707zM59.176 5.832q.847 0 1.448.62.62.604.62 1.451 0 .847-.62 1.448-.601.585-1.448.585t-1.447-.585q-.586-.605-.586-1.448 0-.847.604-1.451.601-.616 1.43-.616zm1.84 22.741q0 1.53-1.87 1.53-1.807 0-1.807-1.53V14.037q0-.763.405-1.107.423-.356 1.436-.356.99 0 1.413.356.424.359.424 1.107zm-16.213-.098q0 .847-.454 1.236-.438.393-1.432.393-1.01 0-1.433-.378-.404-.39-.404-1.247V10.277q0-3.111 3.156-3.111h8.137q1.058 0 1.497.34.442.34.442 1.368 0 .994-.473 1.384-.472.378-1.466.378h-7q-.242 0-.404.177-.163.178-.163.454v5.37h6.134q1.093 0 1.531.378.439.356.439 1.316 0 .979-.473 1.383-.468.393-1.497.393h-6.134z"/>
  <path fill="#8899a6" d="M26.494 19.453c-.453 0-.899.057-1.326.159l-7.623-7.623a5.889 5.889 0 0 0-5.734-7.22c-.661 0-1.542.677-.809 1.41l2.204 2.204s.733 1.466-.734 2.937c-1.47 1.466-2.936.733-2.936.733L7.332 9.849c-.733-.733-1.406.144-1.406.813a5.889 5.889 0 0 0 7.215 5.73l7.62 7.623a5.862 5.862 0 0 0 5.733 7.215c.662 0 1.543-.673.81-1.41l-2.204-2.2s-.733-1.47.737-2.936c1.466-1.466 2.933-.733 2.933-.733l2.203 2.2c.737.737 1.41-.144 1.41-.81a5.89 5.89 0 0 0-5.889-5.888z"/>
</svg>
