<svg xmlns="http://www.w3.org/2000/svg" height="1.2em" viewBox="0 0 36 36">
  <circle cx="18" cy="18" r="18" fill="#ffcc4d"/>
  <path fill="#664500" d="M15.579 26.981a2.421 2.421 0 1 1 4.842.008 2.42 2.42 0 0 1-4.838-.008zm2.333-4.158c-1.07 0-2.03-.79-2.03-1.87v-2.609a1.95 1.95 0 0 1 1.94-1.958c.389-.004 3.878-.654 3.878-3.262 0-1.304-1.293-2.608-3.232-2.608-1.576 0-2.585 1.304-2.585 1.954a1.95 1.95 0 0 1-1.94 1.958 1.947 1.947 0 0 1-1.935-1.958c0-3.183 2.96-5.87 6.464-5.87 5.167 0 7.106 3.9 7.106 7.174 0 2.706-1.474 4.774-4.146 5.821-.583.227-.813.303-1.331.405v.869c0 1.081-1.119 1.958-2.189 1.958z"/>
</svg>
