<svg id="Layer_1" xmlns="http://www.w3.org/2000/svg" viewBox="0 0 100 100"><style>.st1{fill:#999}</style><path d="M0 0h100v100H0V0z" fill="#fff"/><path class="st1" d="M100 100H0V0h100v100zM9.7 90h80.7V10H9.7"/><path class="st1" d="M57.5 42.7c0-3.2-1.9-5.7-4.7-6.8v-9.2c0-1.5-1.1-2.7-2.7-2.7-1.5 0-2.7 1.1-2.7 2.7v9.2c-2.8 1-4.7 3.7-4.7 6.8s1.9 5.8 4.7 6.8c0 .1-.1.4-.1.5v23.3c0 1.5 1.1 2.7 2.7 2.7 1.5 0 2.7-1.1 2.7-2.7V50.1c0-.3 0-.4-.1-.5 3-1.1 4.9-3.7 4.9-6.9zm-7.3 2c-1.1 0-2-.9-2-2s.9-2 2-2 2 .9 2 2-.9 2-2 2zm21.2-17.9c0-1.5-1.1-2.7-2.7-2.7-1.5 0-2.7 1.1-2.7 2.7v21.8c-2.8 1-4.7 3.7-4.7 6.8s1.9 5.8 4.7 6.8c0 .1-.1.4-.1.5v10.6c0 1.5 1.1 2.7 2.7 2.7 1.5 0 2.7-1.1 2.7-2.7V62.7c0-.3 0-.4-.1-.5 2.8-1 4.7-3.7 4.7-6.8s-1.9-5.7-4.7-6.8V26.8h.2zm-2.6 30.6c-1.1 0-2-.9-2-2s.9-2 2-2 2 .9 2 2-.9 2-2 2zM28.9 73.3c0 1.5 1.1 2.7 2.7 2.7s2.7-1.1 2.7-2.7V62.7c0-.3 0-.4-.1-.5 2.8-1 4.7-3.7 4.7-6.8s-1.9-5.7-4.7-6.8V26.8c0-1.5-1.1-2.7-2.7-2.7-1.5 0-2.7 1.1-2.7 2.7v21.8c-2.8 1-4.7 3.7-4.7 6.8s1.9 5.8 4.7 6.8c0 .1-.1.4-.1.5v10.6h.2zm2.7-19.9c1.1 0 2 .9 2 2s-.9 2-2 2-2-.9-2-2 .9-2 2-2z"/></svg>