<svg xmlns="http://www.w3.org/2000/svg" viewBox="0 0 100 100"><style>.st2{fill:#215997}</style><path fill="#fff" d="M0 0h100v100H0z"/><path d="M100 100H0V0h100v100zM9.7 90h80.7V10H9.7" fill="#666"/><path class="st2" d="M44.4 72.5C32 72.5 21.9 62.4 21.9 50S32 27.5 44.4 27.5c7.1 0 13.6 3.3 17.9 8.9l-8.2 4.8c-2.5-2.7-6-4.3-9.7-4.3-7.2 0-13.1 5.9-13.1 13.1s5.9 13.1 13.1 13.1c3.7 0 7.2-1.6 9.7-4.3l8.2 4.8c-4.2 5.6-10.8 8.9-17.9 8.9z"/><path class="st2" d="M66.9 51.9h-3.7v3.7h-3.8v-3.7h-3.7v-3.8h3.7v-3.7h3.8v3.7h3.7zm13.2 0h-3.8v3.7h-3.7v-3.7h-3.8v-3.8h3.8v-3.7h3.7v3.7h3.8z"/></svg>