<svg xmlns="http://www.w3.org/2000/svg" viewBox="0 0 100 100"><style>.st0{fill:#fff}.st1{fill:#d5006e}</style><path class="st0" d="M0 0h100v100H0z"/><path class="st1" d="M100 100H0V0h100v100zM9.7 90h80.7V10H9.7"/><path class="st1" d="M44.9 73c-12.4 0-22.5-10.1-22.5-22.5S32.5 28 44.9 28c7.1 0 13.6 3.3 17.9 8.9l-8.2 4.8c-2.5-2.7-6-4.3-9.7-4.3-7.2 0-13.1 5.9-13.1 13.1s5.9 13.1 13.1 13.1c3.7 0 7.2-1.6 9.7-4.3l8.2 4.8C58.5 69.7 52 73 44.9 73z"/><path class="st1" d="M78.6 48.6h-3.7v3.8h3.7v3.7h-3.7v3.8h-3.8v-3.8h-3.7v3.8h-3.8v-3.8h-3.7v-3.7h3.7v-3.8h-3.7v-3.7h3.7v-3.8h3.8v3.8h3.7v-3.8h3.8v3.8h3.7z"/><path class="st0" d="M67.4 48.6h3.8v3.8h-3.8z"/></svg>