<svg xmlns="http://www.w3.org/2000/svg" viewBox="0 0 100 100"><path fill="#fff" d="M0 0h100v100H0z"/><path d="M100 100H0V0h100v100zM9.7 90h80.7V10H9.7" fill="#999"/><path d="M42.3 44.2h15.4V48H42.3v-3.8zm0 7.7h15.4v3.8H42.3v-3.8zm0 7.7h15.4v3.8H42.3v-3.8zM69.2 25H38.5c-4.2 0-7.7 3.4-7.7 7.7v34.6h-7.7c0 4.2 3.4 7.7 7.7 7.7h30.8c4.2 0 7.7-3.4 7.7-7.7V36.5H77v-3.8c-.1-4.3-3.5-7.7-7.8-7.7zm-3.8 41.6c0 2.5-2 4.5-4.5 4.5H32.7c1.9-1.3 1.9-3.8 1.9-3.8V32.7c0-2.1 1.7-3.8 3.8-3.8s3.8 1.7 3.8 3.8v3.8h23.1v30.1zM46.2 32.7v-3.8h23.1c3.5 0 3.8 2.2 3.8 3.8H46.2z" fill="#999" stroke="#999" stroke-width=".75" stroke-miterlimit="10"/></svg>