<svg xmlns="http://www.w3.org/2000/svg" viewBox="0 0 100 100"><style>.st0{fill:#fff}.st5{fill:#e6e6e5}</style><path class="st0" d="M0 0h100v100H0z"/><path d="M100 100H0V0h100v100zM9.7 90h80.7V10H9.7" fill="#666"/><path fill="#1072ba" d="M30.1 73l-4.3-49.5h48.4L69.9 73 50 78.5z"/><path fill="#2aaae2" d="M50 74.3l16.1-4.4 3.7-42.3H50z"/><path fill="#b4b4b4" d="M35.9 45.8l.5 6.1L50 45.8v-6.1z"/><path class="st5" d="M65.2 33.2L50 39.7v6.1l14.6-6.5zM50 61.7l-6.8-1.9-.4-4.8h-6.1l.8 9.5L50 68z"/><path class="st0" d="M50 45.8v6.1h7.5l-.7 7.9-6.8 1.9V68l12.4-3.5 1.7-18.7z"/><path class="st5" d="M50 45.8H35.9l.5 6.1H50zm0-6.5v-6.1H34.8l.5 6.1z"/><path class="st0" d="M50 33.2v6.1h14.6l.6-6.1z"/></svg>