<svg xmlns="http://www.w3.org/2000/svg" viewBox="0 0 100 100"><style>.st1{fill:#a87d45}</style><path fill="#fff" d="M0 0h100v100H0z"/><path class="st1" d="M100 100H0V0h100v100zM9.7 90h80.7V10H9.7"/><path class="st1" d="M59.4 53.8L50 49.4l18.8-8.8 9.4 4.4-9.4 4.4-9.4 4.4zm9.4-21.9l-9.4-4.4-9.4 4.4 18.8 8.8 9.4-4.4-9.4-4.4zM40.6 45l-9.4-4.4-9.4 4.4 18.8 8.8 9.4-4.4-9.4-4.4zm0-8.7l9.4-4.4-9.4-4.4-18.8 8.8 9.4 4.4 9.4-4.4zM68.8 52l-8.4 3.9-1 .5-1-.5L50 52l-8.4 3.9-1 .5-1-.5-8.4-3.9v13.7L50 75.5l18.8-9.8V52z"/></svg>