<svg xmlns="http://www.w3.org/2000/svg" viewBox="0 0 100 100"><style>.st1{fill:#d8a13f}</style><path fill="#fff" d="M0 0h100v100H0z"/><path class="st1" d="M100 100H0V0h100v100zM9.7 90h80.7V10H9.7"/><path class="st1" d="M72.4 38.5h-7.9v-7.9l7.9 7.9zm-21.3-7.9v28.8h21.4v-19h-9.9v-9.9H51.1zm3.3-7.6H30.8v5.6h9.3l-5.9 4.5v4.8l8.6-6.6v-2.7h30.1v-2.3L54.4 23zM42.9 35.1l-8.6 6.6v4.8l8.6-6.6v-4.8zm-8.7 20l8.6-6.6v-4.8l-8.6 6.6v4.8zm8.7 2v-4.8l-8.6 6.6v2.6h-3.4v5.6h5.3v3.8H33c-.6-1-1.6-1.6-2.8-1.6-1.8 0-3.2 1.4-3.2 3.2s1.4 3.2 3.2 3.2c1.2 0 2.2-.6 2.8-1.6h3.1V77h4.8v-2.9H44c.6 1 1.6 1.6 2.8 1.6 1.8 0 3.2-1.4 3.2-3.2s-1.4-3.2-3.2-3.2c-1.2 0-2.2.6-2.8 1.6h-3.1v-3.8h13.5l18.5-3.3v-2.3H37.1l5.8-4.4z"/></svg>