<svg xmlns="http://www.w3.org/2000/svg" viewBox="0 0 100 100"><style>.st1{fill:#8ed200}</style><path fill="#fff" d="M0 0h100v100H0z"/><path class="st1" d="M100 100H0V0h100v100zM9.7 90h80.7V10H9.7"/><path class="st1" d="M49.7 25.4c.2-.5.4-.5.6 0L56 43c.2.5.7.9 1.2.9h18.6c.5 0 .6.2.2.6L61 55.4c-.4.3-.6.9-.5 1.5l5.7 17.7c.2.5-.1.7-.5.3L50.7 64c-.5-.3-1.1-.3-1.5 0l-15 10.9c-.4.3-.6.2-.5-.3l5.7-17.7c.1-.5 0-1.1-.5-1.5L24 44.5c-.4-.3-.3-.6.2-.6h18.6c.6 0 1.1-.4 1.2-.9l5.7-17.6z"/><path d="M49.7 25.4c.2-.5.4-.5.6 0L56 43c.2.5.7.9 1.2.9h18.6c.5 0 .6.2.2.6L61 55.4c-.4.3-.6.9-.5 1.5l5.7 17.7c.2.5-.1.7-.5.3L50.7 64c-.5-.3-1.1-.3-1.5 0l-15 10.9c-.4.3-.6.2-.5-.3l5.7-17.7c.1-.5 0-1.1-.5-1.5L24 44.5c-.4-.3-.3-.6.2-.6h18.6c.6 0 1.1-.4 1.2-.9l5.7-17.6z" fill="none"/></svg>