<svg id="Layer_1" xmlns="http://www.w3.org/2000/svg" viewBox="0 0 100 100"><style>.st2,.st3{fill:#c00;stroke:#c00;stroke-miterlimit:10}.st3{fill:#265db4;stroke:#265db4}</style><path d="M0 0h100v100H0V0z" fill="#fff"/><path d="M100 100H0V0h100v100zM9.7 90h80.7V10H9.7" fill="#666"/><path class="st2" d="M52.3 47.1c2.9 3.3-.8 6.3-.8 6.3s7.3-3.8 4-8.5c-3.1-4.4-5.6-6.6 7.5-14.2 0 0-20.5 5.2-10.7 16.4"/><path class="st2" d="M55.5 18.5s6.2 6.2-5.9 15.8c-9.7 7.7-2.2 12.1 0 17.1-5.7-5.1-9.8-9.6-7-13.8 4-6.2 15.4-9.2 12.9-19.1"/><path class="st3" d="M62.3 64.5c11.2-5.8 6-11.5 2.4-10.7-.9.2-1.3.3-1.3.3s.3-.5 1-.7c7.2-2.5 12.7 7.4-2.3 11.4-.1 0 .1-.2.2-.3m-20.7 2.4s-2.3 1.3 1.6 1.8c4.7.5 7.2.5 12.4-.5 0 0 1.4.9 3.3 1.6-11.7 5-26.5-.3-17.3-2.9m-1.4-6.5s-2.6 1.9 1.4 2.3c5.1.5 9.1.6 16-.8 0 0 1 1 2.5 1.5-14.2 4.2-30 .3-19.9-3"/><path class="st3" d="M67.8 71.8s1.7 1.4-1.9 2.5c-6.8 2.1-28.2 2.7-34.1.1-2.1-.9 1.9-2.2 3.1-2.5 1.3-.3 2.1-.2 2.1-.2-2.4-1.7-15.4 3.3-6.6 4.7 23.9 3.8 43.6-1.8 37.4-4.6M42.7 53.6s-10.9 2.6-3.9 3.5c3 .4 8.9.3 14.4-.2 4.5-.4 9-1.2 9-1.2s-1.6.7-2.7 1.5c-11.1 2.9-32.4 1.6-26.3-1.4 5.3-2.5 9.5-2.2 9.5-2.2"/><path class="st3" d="M43.8 80.3c10.8.7 27.3-.4 27.7-5.5 0 0-.8 1.9-8.9 3.5-9.2 1.7-20.6 1.5-27.3.4.1 0 1.5 1.2 8.5 1.6"/></svg>