<svg xmlns="http://www.w3.org/2000/svg" viewBox="0 0 100 100"><style>.st0{fill:#fff}</style><path class="st0" d="M0 0h100v100H0z"/><path d="M100 100H0V0h100v100zM9.7 90h80.7V10H9.7" fill="#666"/><path fill="#72a536" d="M74.3 23.5H25.7l4.5 49.4L50 78.5l19.7-5.6z"/><path fill="#9c4" d="M50 27.5v46.8l16-4.5 3.9-42.3z"/><path d="M62.4 64.6L50 68l-12.5-3.5-.9-9.5h6.2l.3 4.7 6.9 2 6.6-2 1.9-20.1H35.1l-.4-6h30.6l-2.9 31z" fill="#e6e6e5"/><path class="st0" d="M62.5 64.6L50 68v-6.3l6.6-2 1.9-20.1H50v-6h15.4z"/></svg>