<svg xmlns="http://www.w3.org/2000/svg" viewBox="0 0 100 100"><style>.st1{fill:#999}</style><path fill="#fff" d="M0 0h100v100H0z"/><path class="st1" d="M100 100H0V0h100v100zM9.7 90h80.7V10H9.7"/><path d="M22 53.4v-5.9c1.3-.1 2.3-.2 2.9-.6.6-.2 1.1-.8 1.6-1.4.5-.7.8-1.5 1-2.6.1-.8.3-2.1.3-4 0-3.2.1-5.4.5-6.7.3-1.2.9-2.3 1.6-3 .8-.7 2-1.3 3.5-1.8 1-.2 2.6-.5 4.9-.5h1.4v5.8c-1.9 0-3.2.1-3.7.4-.5.2-.9.5-1.3 1-.3.4-.4 1.1-.4 2.1s-.1 3-.3 5.8c-.1 1.7-.3 3-.6 3.9-.4 1-.9 1.8-1.4 2.5-.5.6-1.4 1.3-2.5 2 1 .6 1.9 1.2 2.5 1.9.6.7 1.1 1.7 1.5 2.7.4 1.1.6 2.5.6 4.3.1 2.7.1 4.4.1 5.2 0 1.1.1 1.8.4 2.3.3.5.8.7 1.3 1 .5.2 1.8.4 3.7.4V74h-1.4c-2.3 0-4.2-.1-5.3-.5-1.3-.4-2.3-1-3.2-1.8-.9-.8-1.4-1.8-1.8-3-.3-1.2-.4-3.1-.4-5.7 0-3-.1-5-.4-5.8-.4-1.3-1-2.3-1.8-2.9-.5-.5-1.7-.9-3.3-.9zm55.9 0c-1.3.1-2.3.2-2.9.6-.6.2-1.1.8-1.6 1.4-.5.7-.8 1.5-1 2.6-.1.8-.3 2.1-.3 4 0 3.2-.1 5.4-.5 6.7-.3 1.3-.9 2.3-1.6 3-.8.7-2 1.3-3.5 1.8-1 .2-2.6.5-4.9.5h-1.4v-5.8c1.9 0 3-.1 3.7-.4.6-.2 1-.6 1.3-1s.4-1.1.4-2.1.1-2.9.3-5.7c.1-1.7.4-3.1.8-4 .4-1.1.9-1.9 1.5-2.6.6-.7 1.4-1.3 2.4-1.9-1.6-1-2.6-1.7-3.1-2.4-.8-1.1-1.4-2.5-1.6-4-.3-1.2-.4-3.7-.4-7.5 0-1.2-.1-2-.4-2.5-.3-.4-.6-.7-1.1-1-.5-.2-1.8-.4-3.8-.4v-5.8h1.4c2.3 0 4.2.1 5.3.5 1.3.4 2.3 1 3.2 1.8.9.8 1.4 1.8 1.8 3 .3 1.2.5 3.1.5 5.7 0 3 .1 4.9.4 5.8.4 1.3 1 2.3 1.8 2.7.8.6 2 .8 3.5 1v5.9l-.2.1z" stroke="#999" stroke-width=".5" stroke-miterlimit="10" fill="#999"/><path class="st1" d="M61.1 52.8c-1-.3-1.6-1.2-1.6-2.2 0-1 .7-1.9 1.6-2.2.3-.1.5-.4.4-.7-.3-1.1-.7-2.1-1.3-3-.1-.3-.5-.4-.8-.2-.3.2-.7.3-1.1.3-1.3 0-2.3-1.1-2.3-2.3 0-.4.1-.8.3-1.1.1-.3 0-.6-.2-.8-.9-.6-2-1-3-1.3-.3-.1-.6.1-.7.4-.3 1-1.2 1.6-2.2 1.6s-1.9-.7-2.2-1.6c-.1-.3-.4-.5-.7-.4-1.1.3-2.1.7-3 1.3-.3.1-.4.5-.2.8.2.3.3.7.3 1.1 0 1.3-1.1 2.3-2.3 2.3-.4 0-.8-.1-1.1-.3-.3-.1-.6 0-.8.2-.6.9-1 2-1.3 3-.1.3.1.6.4.7 1 .3 1.6 1.2 1.6 2.2 0 1-.7 1.9-1.6 2.2-.3.1-.5.4-.4.7.3 1.1.7 2.1 1.3 3 .1.3.5.4.8.2.3-.2.7-.3 1.1-.3 1.3 0 2.3 1.1 2.3 2.3 0 .4-.1.8-.3 1.1-.1.3 0 .6.2.8.9.6 2 1 3 1.3h.1c.2 0 .5-.1.6-.4.3-1 1.2-1.6 2.2-1.6s1.9.7 2.2 1.6c.1.3.4.5.7.4 1.1-.3 2.1-.7 3-1.3.3-.1.4-.5.2-.8-.2-.3-.3-.7-.3-1.1 0-1.3 1.1-2.3 2.3-2.3.4 0 .8.1 1.1.3.3.1.6 0 .8-.2.6-.9 1-2 1.3-3 .1-.3-.1-.6-.4-.7zM50 54.1c-2 0-3.6-1.6-3.6-3.6s1.6-3.6 3.6-3.6 3.6 1.6 3.6 3.6-1.6 3.6-3.6 3.6z"/></svg>