<svg xmlns="http://www.w3.org/2000/svg" viewBox="0 0 100 100"><style>.st1{fill:#1f7244}</style><path fill="#fff" d="M0 0h100v100H0z"/><path class="st1" d="M100 100H0V0h100v100zM9.7 90h80.7V10H9.7"/><path class="st1" d="M62.4 34h14.1v9.4H62.4zm0 14.5h14.1v9.4H62.4zm0 14.3h14.1v9.4H62.4zm-19.1 0h14.1v9.4H43.3zm-19.1 0h14.1v9.4H24.2zm24.6-35h2c3 .2 5.3.9 7.6 1.9 4.4-2 10.6-.5 14.6 1-5-.5-10.9 0-14.3 2-3.5-2.8-10-3.6-16.1-2.8 1.7-1.2 3.8-1.9 6.2-2.1zm-1.3 7.5c-3.6.2-6.5 1.4-8.4 3-5.9-2.7-16.1-1.5-19.9 2.1-.3.2-.7.5-.6.8 3.4-1 7.4-1.9 11.6-1.5 4.2.3 7.3 1.7 9.6 3.6 4.3-3.8 10.6-6 18.6-5.9-2.8-1.3-6.9-2.3-10.9-2.1zm-4.1 13.3h14.1V58H43.4zm-19.1 0h14.1V58H24.3z"/></svg>