<svg xmlns="http://www.w3.org/2000/svg" viewBox="0 0 100 100"><style>.st1,.st2{fill:#1a75ce}.st2{stroke:#1a75ce;stroke-width:.5;stroke-miterlimit:10}</style><path fill="#fff" d="M0 0h100v100H0z"/><path class="st1" d="M100 100H0V0h100v100zM9.7 90h80.7V10H9.7"/><path class="st2" d="M59 42.8h19.4v3.1H59v-3.1zm-37.9 8.4h57.4v3.4H21.1v-3.4zm0 8.4h57.4V63H21.1v-3.4z"/><path class="st1" d="M53.3 28.7h2.1c3.2.2 5.7 1 8.1 2 4.7-2.1 11.3-.5 15.5 1.1-5.3-.5-11.6 0-15.2 2.1C60 31 53.1 30.1 46.6 31c1.9-1.3 4.1-2 6.7-2.3zm-1.5 8c-3.8.2-6.9 1.5-9 3.2-6.3-2.8-17.1-1.6-21.1 2.2-.4.2-.7.5-.6.9 3.6-1.1 7.9-2 12.3-1.6 4.4.4 7.7 1.8 10.2 3.8 4.5-4.1 11.3-6.4 19.8-6.3-3-1.3-7.3-2.4-11.6-2.2z"/><path class="st2" d="M21.1 67.8h57.4v3.4H21.1v-3.4z"/></svg>