<svg xmlns="http://www.w3.org/2000/svg" viewBox="0 0 100 100"><path fill="#fff" d="M0 0h100v100H0z"/><path d="M100 100H0V0h100v100zM9.7 90h80.7V10H9.7" fill="#c11e07"/><path d="M46.2 21.8c-3.5 0-6.3 2.9-6.3 6.3 0 4.3 2.4 9.6 4.9 14.7-2 6.1-4.1 12.7-7 18.2-5.8 2.3-11 4-14 6.6l-.2.2c-1.1 1.2-1.8 2.7-1.8 4.4 0 3.5 2.9 6.3 6.3 6.3 1.7 0 3.4-.6 4.4-1.8 0 0 .2 0 .2-.2 2.3-2.7 5-7.8 7.5-12.2 5.5-2.1 11.5-4.4 16.9-5.8 4.1 3.4 10.1 5.5 15 5.5 3.5 0 6.3-2.9 6.3-6.3 0-3.5-2.9-6.3-6.3-6.3-4 0-9.6 1.4-13.9 2.9-3.5-3.4-6.7-7.5-9.2-11.9C50.6 37 52.6 32 52.6 28c-.2-3.5-2.9-6.2-6.4-6.2zm0 3.6c1.4 0 2.4 1.1 2.4 2.4 0 1.8-1.1 5.3-2.1 9-1.5-3.7-2.9-7.2-2.9-9 .1-1.2 1.2-2.4 2.6-2.4zm1.1 21.5c1.8 3.1 4.1 5.8 6.6 8.2-3.7 1.1-7.3 2.3-11 3.7 1.8-3.8 3.1-7.9 4.4-11.9zM72 55c1.4 0 2.4 1.1 2.4 2.4 0 1.4-1.1 2.4-2.4 2.4-2.9 0-6.9-1.2-10.1-3.1C65.6 56 69.7 55 72 55zM34.6 66.2c-1.8 3.2-3.5 6.1-4.7 7.6-.5.5-.9.6-1.7.6-1.4 0-2.4-1.1-2.4-2.4 0-.6.3-1.4.6-1.7 1.3-1.2 4.5-2.6 8.2-4.1z" fill="#c11e07" stroke="#c11e07" stroke-width="1.25" stroke-miterlimit="10"/></svg>