<svg xmlns="http://www.w3.org/2000/svg" viewBox="0 0 100 100"><style>.a{fill:#6781b2}</style><path fill="#FFF" d="M0 0h100v100H0z"/><path d="M100 100H0V0h100v100zM9.7 90h80.7V10H9.7" class="a"/><path d="M27.3 54.7c1.8 0 3.2-.3 4-1 .8-.7 1.4-1.8 1.7-3.4.3-1.5.2-2.5-.3-3.1-.5-.6-1.6-.9-3.3-.9h-2.9l-1.6 8.4h2.4zM17.8 65c-.1 0-.3-.1-.3-.2-.1-.1-.1-.2-.1-.4l4.2-22.2c0-.2.2-.4.4-.4h9.2c2.9 0 5 .8 6.4 2.4 1.4 1.6 1.8 3.8 1.2 6.5-.2 1.1-.6 2.2-1.1 3.1-.5.9-1.2 1.8-2 2.6-1 .9-2.1 1.6-3.3 2-1.2.4-2.7.6-4.6.6h-3.7L23 64.6c0 .2-.2.4-.4.4h-4.8zm34.5-5.9c-.1 0-.3-.1-.3-.2-.1-.1-.1-.2-.1-.4l1.9-9.8c.2-.9.1-1.6-.1-1.9-.2-.2-.6-.5-2-.5h-3.4L46 58.6c0 .2-.2.4-.4.4h-4.7c-.1 0-.3-.1-.3-.2-.1-.1-.1-.2-.1-.4l4.2-22.2c0-.2.2-.4.4-.4h4.7c.1 0 .3.1.3.2.1.1.1.2.1.4l-1 5.4h3.6c2.8 0 4.6.5 5.7 1.5 1.1 1 1.5 2.7 1 5l-1.9 10.3c0 .2-.2.4-.4.4h-4.9v.1zm18.1-4.4c1.9 0 3.3-.3 4.2-1 .9-.7 1.5-1.8 1.8-3.4.3-1.5.2-2.5-.3-3.1-.5-.6-1.7-.9-3.4-.9h-3L68 54.7h2.4zM60.6 65c-.1 0-.3-.1-.4-.2-.1-.1-.1-.2-.1-.4l4.4-22.2c0-.2.2-.4.5-.4h9.5c3 0 5.2.8 6.6 2.4 1.4 1.6 1.8 3.8 1.3 6.5-.2 1.1-.6 2.2-1.1 3.1-.5.9-1.2 1.8-2.1 2.6-1 .9-2.2 1.6-3.5 2-1.2.4-2.8.6-4.8.6h-3.8L66 64.6c0 .2-.2.4-.5.4h-4.9z" class="a"/></svg>