<svg xmlns="http://www.w3.org/2000/svg" viewBox="0 0 100 100"><style>.st0{fill:#fff}</style><path class="st0" d="M0 0h100v100H0z"/><path d="M100 100H0V0h100v100zM9.7 90h80.7V10H9.7" fill="#666"/><path d="M78 50.5c0 15.5-12.5 28-28 28S22 66 22 50.5s12.5-28 28-28 28 12.5 28 28" fill="#3a3c5b"/><path class="st0" d="M69.5 52.6c-.9-6-7.2-9.8-11.8-12.7-2-1.3-5.3-2.9-5.8-5.6-.2-1.1-.2-2.2-.2-3.4 0-.4 0-.9-.1-1.3-.1-.6-.6.1-.9-.4-.8-1.2-.5.4-.4 1 .2 1.5.4 3 .4 4.5 0 2.9-.5 5.7-1.2 8.5-1.7 6.6-3 13.3-1.4 20 .3 1.4.8 2.8 1.4 4.1.2.4.5 1.5 1 1.6 1.8.5 3.1.6 4.5 1.9.9.8 1.5.4 2.6 0 3.2-1.3 5.9-2.9 8.1-5.5 3.3-3.6 4.6-7.9 3.8-12.7m-3.3 6c-.3 2.4-1.8 4.6-3.4 6.5-1.1 1.3-2.7 3-4.4 3.6-.6.2.1-1 .2-1.1.5-.8 1.2-1.5 1.8-2.2.9-1.1 1.6-2.2 2.2-3.5 1.7-4.3 1.3-9.5-1.2-13.4-1.4-2.1-3.3-3.9-5.2-5.5-.9-.8-1.9-1.5-2.6-2.5-.2-.2-1.8-2.3-1.3-2.6.2-.1 3.6 3.6 4 3.8 1.4 1.1 2.9 2.1 4.2 3.3 1.8 1.7 3.6 3.5 4.7 5.7 1.1 2.4 1.3 5.2 1 7.9"/><path class="st0" d="M49 23.3c.5.3.6 2.4.6 4.2 0 1.9.2 9.8-.4 12-.6 2.1-1.9 4.5-3.4 6.6-1.4 2.1-3.1 6.5-3.1 9.2.1 2.7 1.6 7.2 2.8 9 1.2 1.9 3.3 4.5 2.8 5-.8 1-4.1-2.5-5.9-4.6-1.7-2.1-3.5-6.3-3.5-9.6-.1-3.3 1.8-6.4 3.1-8.2 1.3-1.9 3.9-5 4.6-6.5.7-1.4 1.4-3 1.7-5 .2-2 0-9.3 0-9.3s.1-3.2.7-2.8"/><path class="st0" d="M47.6 26.7c.5.2.6.9.6 1.5s-.2 3.2-.3 5.8c-.2 2.5-2.2 4.7-3.7 6.2s-5.9 6.2-7.5 8.5c-1.6 2.3-2.4 5.4-2.3 7.9.2 2.6.8 5.2 3.2 7.9 2.4 2.7 4.1 4 5.4 4.6 1.3.6 2.5 1.1 2.3 1.7-.3.6-1.5.2-2.8-.3-1.3-.5-5.9-2.3-8.5-5.3-2.6-3-3.9-6.9-3.8-10.7.1-3.8 1.2-5.3 2.9-7.8 1.7-2.4 6.5-6 8.1-7 1.5-.9 3.5-2.5 4.5-3.8 1-1.3 1.5-2.3 1.4-4.1-.1-1.7.1-3.3.1-3.9-.1-.3-.1-1.5.4-1.2m.1 45.4c.2 0 .1 1-.3 1.5s-1.1.8-1.2.6c-.1-.2.5-.3 1-.8.3-.5.2-1.3.5-1.3m4.7-.1c-.2 0-.1 1 .3 1.5s1.1.8 1.2.6c.1-.2-.5-.3-1-.8-.3-.4-.2-1.2-.5-1.3m-2.1 1.2c0 .9 0 1.6-.1 1.6-.2 0-.1-.7-.1-1.6 0-.9-.1-1.6.1-1.6.2-.1.1.7.1 1.6"/></svg>