<svg xmlns="http://www.w3.org/2000/svg" viewBox="0 0 100 100"><path fill="#fff" d="M0 0h100v100H0z"/><path d="M100 100H0V0h100v100zM9.7 90h80.7V10H9.7" fill="#666"/><path d="M48.9 75.9c-6.3-.2-10.2-2.1-11.2-5.4l-.1-.4v-6.4c0-7.4 0-7.5.4-8.7.7-2.1 2.4-3.5 5-4.1l.6-.1h7.3c5.2 0 7.4 0 7.6-.1 1.5-.3 2.4-.6 3.3-1.3 1.1-.8 2-2.2 2.3-3.7.3-1.1.3-1 .3-4.9v-3.6h5.2l.5.1c2.7.8 4.7 3.3 5.5 7.2.3 1.5.3 1.6.3 5.4 0 3.7 0 3.7-.3 5-.3 1.2-.6 2.2-1.1 3.2-1 2-2.5 3.4-4.4 4-1.1.4-.2.3-10.7.4h-9.5v1.8h12.6v6.5c-.1.4-.2.9-.5 1.4-.3.5-1.1 1.3-1.6 1.7-1.7 1.1-4.3 1.8-7.7 2h-3.8zm8.7-4c1.2-.2 2.1-1.4 1.9-2.6-.2-1-.9-1.7-1.9-1.9-1.5-.2-2.8 1.1-2.6 2.6.2 1.1 1.1 1.8 2.2 1.9h.4zm-27-9.2c-1.4-.3-2.8-1.1-3.8-2.4-1.9-2.3-2.8-6.2-2.7-11.1.1-3 .5-5.3 1.5-7.2 1.2-2.5 3-3.9 5.4-4.4.5-.1.6-.1 9.8-.1h9.4c.1 0 .1-.1.1-.9v-.9H37.7v-3.3c0-3.6 0-3.5.3-4.2 1.1-2.3 4.2-3.7 9.2-4.1.4 0 1.3-.1 2.2-.1 5.6-.1 9.6.9 11.8 2.9.2.2.5.6.7.7.3.4.7 1.2.9 1.8l.1.4v6.8c0 6.3 0 6.8-.1 7.2-.1.6-.4 1.4-.6 1.8-.8 1.5-2.2 2.6-4.1 3.1-1.2.3-.7.3-8.7.4-8 0-7.5 0-8.6.3-2.2.6-3.8 2.3-4.4 4.7-.3 1.1-.3 1-.3 4.9v3.7h-2.4c-2.2.1-2.9.1-3.1 0zm13.3-30.4c.9-.4 1.5-1.5 1.3-2.4-.2-.9-.8-1.6-1.6-1.8-1.3-.4-2.7.4-2.9 1.8-.2 1.1.4 2.2 1.5 2.5.2.1.4.1.8.1.5 0 .6 0 .9-.2z" fill="#fed142"/><path d="M30.6 62.7c-1.4-.3-2.8-1.1-3.8-2.4-1.9-2.3-2.8-6.2-2.7-11.1.1-3 .5-5.3 1.5-7.2 1.2-2.5 3-3.9 5.4-4.4.5-.1.6-.1 9.8-.1h9.4c.1 0 .1-.1.1-.9v-.9H37.7v-3.3c0-3.6 0-3.5.3-4.2 1.1-2.3 4.2-3.7 9.2-4.1.4 0 1.3-.1 2.2-.1 5.6-.1 9.6.9 11.8 2.9.2.2.5.6.7.7.3.4.7 1.2.9 1.8l.1.4v6.8c0 6.3 0 6.8-.1 7.2-.1.6-.4 1.4-.6 1.8-.8 1.5-2.2 2.6-4.1 3.1-1.2.3-.7.3-8.7.4-8 0-7.5 0-8.6.3-2.2.6-3.8 2.3-4.4 4.7-.3 1.1-.3 1-.3 4.9v3.7h-2.4c-2.2.1-2.9.1-3.1 0zm13.3-30.4c.9-.4 1.5-1.5 1.3-2.4-.2-.9-.8-1.6-1.6-1.8-1.3-.4-2.7.4-2.9 1.8-.2 1.1.4 2.2 1.5 2.5.2.1.4.1.8.1.5 0 .6 0 .9-.2z" fill="#3571a3"/></svg>