<svg xmlns="http://www.w3.org/2000/svg" viewBox="0 0 100 100"><path fill="#fff" d="M0 0h100v100H0z"/><path d="M100 100H0V0h100v100zM9.7 90h80.7V10H9.7" fill="#666"/><path d="M74.5 25.5v49L62.2 37.8l12.3-12.3zm-49 49h49L37.8 62.2 25.5 74.5zm12.3-12.3l36.8 12.2L50 50 37.8 62.2zM50 50l24.5 24.5-12.3-36.7L50 50zM25.5 62.2v12.2l12.2-12.2H25.5zM50 50H37.8v12.2L50 50zm12.2-12.2H50V50l12.2-12.2zm12.3-12.3H62.2v12.2l12.3-12.2zM37.8 50L25.5 62.2h12.2V50zM50 37.8L37.8 50H50V37.8zm12.2-12.3L50 37.8h12.2V25.5z" fill="#992315"/><path d="M74.5 25.5v49L62.2 37.8l12.3-12.3zm-49 49h49L37.8 62.2 25.5 74.5zm12.3-12.3l36.8 12.2L50 50 37.8 62.2zM50 50l24.5 24.5-12.3-36.7L50 50zM25.5 62.2v12.2l12.2-12.2H25.5zM50 50H37.8v12.2L50 50zm12.2-12.2H50V50l12.2-12.2zm12.3-12.3H62.2v12.2l12.3-12.2zM37.8 50L25.5 62.2h12.2V50zM50 37.8L37.8 50H50V37.8zm12.2-12.3L50 37.8h12.2V25.5z" fill="#992315" fill-opacity="0" stroke="#fff"/></svg>