<svg xmlns="http://www.w3.org/2000/svg" viewBox="0 0 100 100"><style>.st1{fill:#a03537}</style><path fill="#fff" d="M0 0h100v100H0z"/><path class="st1" d="M100 100H0V0h100v100zM9.7 90h80.7V10H9.7"/><path class="st1" d="M48.1 75.5c-6.5-.3-12.3-2.3-15.4-5.4-.9-.9-1.8-2.1-2.2-2.9l-.3-.5v-6.1c0-6 0-6.1.1-5.6.3 1.3 1.1 2.7 2.3 3.7.8.7 2.5 1.8 3.8 2.5 2.4 1.2 5.2 2 8.4 2.5 1.9.3 2.6.3 5.3.3s3.4 0 5.3-.3c3.1-.5 6-1.3 8.3-2.5 1.4-.7 3-1.7 3.8-2.5 1.1-1 2-2.5 2.3-3.8.1-.5.1-.4.1 5.5v6l-.3.6c-1 1.9-2.6 3.6-4.7 4.8-4.3 2.7-10.5 4-16.8 3.7z"/><path class="st1" d="M48.1 60.4c-5.7-.3-11-1.9-14.3-4.4-.7-.6-1.8-1.6-2.3-2.2-.4-.6-.8-1.2-1.1-1.8l-.3-.5v-6c0-5.9 0-6 .1-5.5.2.9.7 2 1.5 2.9.4.5 1.1 1.2 1.5 1.4.1.1.5.3.7.5 2.7 1.9 6.5 3.3 10.8 3.9 1.9.3 2.6.3 5.3.3s3.4 0 5.3-.3c3.1-.5 6-1.3 8.4-2.5 1.4-.7 3-1.8 3.9-2.5 1.1-1 2-2.4 2.2-3.7.1-.5.1-.4.1 5.5v5.9l-.4.8c-.7 1.2-1.1 1.8-1.9 2.7-.8.8-1.6 1.5-2.7 2.1-4.3 2.4-10.5 3.7-16.8 3.4z"/><path class="st1" d="M47.7 45.4c-3.8-.3-6.8-.9-9.6-2-3.4-1.3-5.8-3.1-7.1-5.2-.3-.4-.5-1-.7-1.6-.2-.6-.3-2-.1-2.7.9-4.3 6.6-7.9 14.5-9 1.9-.3 2.6-.3 5.3-.3s3.4 0 5.3.3c3.1.5 6 1.3 8.4 2.5 3.5 1.7 5.6 4 6.1 6.5.1.7.1 2.1-.1 2.7-.4 1.3-1 2.2-2 3.2-2.8 2.9-7.9 4.9-14.1 5.6-.9-.1-5.1 0-5.9 0z"/></svg>