<svg xmlns="http://www.w3.org/2000/svg" viewBox="0 0 100 100"><style>.st1{fill:#fea500}</style><path fill="#fff" d="M0 0h100v100H0z"/><path class="st1" d="M100 100H0V0h100v100zM9.7 90h80.7V10H9.7"/><path class="st1" d="M37.6 41.6L24.5 69.4l2.5 2.5 16.3-16.3c-.6-1.3-.4-2.9.7-4 1.4-1.4 3.6-1.4 5 0s1.4 3.6 0 5c-1.1 1.1-2.7 1.3-4 .7L28.7 73.5l2.5 2.5L59 62.9l5.9-16.6-10.7-10.7-16.6 6zm38.1-3.3L62.2 24.8c-1.1-1.1-2.9-1.1-4 0L55 28c-1.1 1.1-1.1 2.9 0 4l13.5 13.5c1.1 1.1 2.9 1.1 4 0l3.2-3.2c1.1-1.1 1.1-2.9 0-4z"/></svg>