<svg xmlns="http://www.w3.org/2000/svg" viewBox="0 0 100 100"><style>.st2{fill:#039}</style><path fill="#fff" d="M0 0h100v100H0z"/><path d="M100 100H0V0h100v100zM9.7 90h80.7V10H9.7" fill="#0e3693"/><path class="st2" d="M32.5 37.5h-9v25h9L53.6 77V23L32.5 37.5M71.9 50c0 6.8-3.7 12.7-9.1 15.8l2.8 4.9c7.1-4.1 11.9-11.8 11.9-20.7 0-8.8-4.8-16.6-11.9-20.7l-2.8 4.9c5.4 3.1 9.1 9 9.1 15.8z"/><path class="st2" d="M62.1 50c0 3.2-1.7 5.9-4.3 7.4l2.7 4.7c4.2-2.4 7-6.9 7-12.1 0-5.2-2.8-9.7-7-12.1l-2.7 4.7c2.6 1.5 4.3 4.2 4.3 7.4z"/></svg>